<svg width="113" height="31" viewBox="0 0 113 31" fill="none" xmlns="http://www.w3.org/2000/svg">
<path d="M0.230469 30V0.90909H8.1282V23.6364H19.8896V30H0.230469ZM50.131 15.4545C50.131 18.6932 49.5013 21.4252 48.2418 23.6506C46.9824 25.8665 45.2826 27.5473 43.1424 28.6932C41.0022 29.8295 38.6159 30.3977 35.9833 30.3977C33.3318 30.3977 30.936 29.8248 28.7958 28.679C26.6651 27.5237 24.9701 25.8381 23.7106 23.6222C22.4606 21.3968 21.8356 18.6742 21.8356 15.4545C21.8356 12.2159 22.4606 9.48864 23.7106 7.27273C24.9701 5.04735 26.6651 3.36648 28.7958 2.23011C30.936 1.08428 33.3318 0.511363 35.9833 0.511363C38.6159 0.511363 41.0022 1.08428 43.1424 2.23011C45.2826 3.36648 46.9824 5.04735 48.2418 7.27273C49.5013 9.48864 50.131 12.2159 50.131 15.4545ZM42.006 15.4545C42.006 13.7121 41.774 12.2443 41.31 11.0511C40.8555 9.84848 40.1784 8.93939 39.2788 8.32386C38.3886 7.69886 37.2901 7.38636 35.9833 7.38636C34.6765 7.38636 33.5733 7.69886 32.6737 8.32386C31.7835 8.93939 31.1064 9.84848 30.6424 11.0511C30.1879 12.2443 29.9606 13.7121 29.9606 15.4545C29.9606 17.197 30.1879 18.6695 30.6424 19.8722C31.1064 21.0653 31.7835 21.9744 32.6737 22.5994C33.5733 23.215 34.6765 23.5227 35.9833 23.5227C37.2901 23.5227 38.3886 23.215 39.2788 22.5994C40.1784 21.9744 40.8555 21.0653 41.31 19.8722C41.774 18.6695 42.006 17.197 42.006 15.4545ZM72.6772 10.5114C72.5541 10.0095 72.36 9.56913 72.0948 9.19034C71.8297 8.80208 71.4982 8.47538 71.1005 8.21023C70.7122 7.93561 70.2577 7.73201 69.7369 7.59943C69.2255 7.45739 68.6621 7.38636 68.0465 7.38636C66.7208 7.38636 65.5891 7.7036 64.6516 8.33807C63.7236 8.97254 63.0134 9.88636 62.521 11.0795C62.038 12.2727 61.7965 13.7121 61.7965 15.3977C61.7965 17.1023 62.0285 18.5606 62.4925 19.7727C62.9566 20.9848 63.6478 21.9129 64.5664 22.5568C65.485 23.2008 66.6261 23.5227 67.9897 23.5227C69.1924 23.5227 70.1914 23.3475 70.9869 22.9972C71.7918 22.6468 72.3931 22.1496 72.7908 21.5057C73.1886 20.8617 73.3874 20.1042 73.3874 19.233L74.7511 19.375H68.1033V13.75H81.0011V17.7841C81.0011 20.4356 80.4376 22.7036 79.3107 24.5881C78.1933 26.4631 76.6497 27.9025 74.68 28.9062C72.7198 29.9006 70.4708 30.3977 67.9329 30.3977C65.1014 30.3977 62.6156 29.7964 60.4755 28.5938C58.3353 27.3911 56.6639 25.6771 55.4613 23.4517C54.2681 21.2263 53.6715 18.5795 53.6715 15.5114C53.6715 13.1061 54.0361 10.9754 54.7653 9.11932C55.5039 7.26326 56.5266 5.69602 57.8335 4.41761C59.1403 3.12973 60.6507 2.15909 62.3647 1.50568C64.0787 0.842802 65.9158 0.511363 67.8761 0.511363C69.5996 0.511363 71.1999 0.757575 72.6772 1.25C74.1639 1.73295 75.4755 2.42424 76.6119 3.32386C77.7577 4.21401 78.681 5.26989 79.3817 6.49148C80.0825 7.71307 80.5086 9.05303 80.6602 10.5114H72.6772ZM112.865 15.4545C112.865 18.6932 112.236 21.4252 110.976 23.6506C109.717 25.8665 108.017 27.5473 105.877 28.6932C103.737 29.8295 101.35 30.3977 98.7177 30.3977C96.0662 30.3977 93.6703 29.8248 91.5302 28.679C89.3995 27.5237 87.7044 25.8381 86.445 23.6222C85.195 21.3968 84.57 18.6742 84.57 15.4545C84.57 12.2159 85.195 9.48864 86.445 7.27273C87.7044 5.04735 89.3995 3.36648 91.5302 2.23011C93.6703 1.08428 96.0662 0.511363 98.7177 0.511363C101.35 0.511363 103.737 1.08428 105.877 2.23011C108.017 3.36648 109.717 5.04735 110.976 7.27273C112.236 9.48864 112.865 12.2159 112.865 15.4545ZM104.74 15.4545C104.74 13.7121 104.508 12.2443 104.044 11.0511C103.59 9.84848 102.913 8.93939 102.013 8.32386C101.123 7.69886 100.025 7.38636 98.7177 7.38636C97.4109 7.38636 96.3076 7.69886 95.408 8.32386C94.5179 8.93939 93.8408 9.84848 93.3768 11.0511C92.9222 12.2443 92.695 13.7121 92.695 15.4545C92.695 17.197 92.9222 18.6695 93.3768 19.8722C93.8408 21.0653 94.5179 21.9744 95.408 22.5994C96.3076 23.215 97.4109 23.5227 98.7177 23.5227C100.025 23.5227 101.123 23.215 102.013 22.5994C102.913 21.9744 103.59 21.0653 104.044 19.8722C104.508 18.6695 104.74 17.197 104.74 15.4545Z" fill="#F4F4F4"/>
</svg>
